<svg xmlns="http://www.w3.org/2000/svg" viewBox="295 385 1345 270">
  <defs>
    <style>
      .cls-1 {
        fill: #fff;
      }
    </style>
  </defs>
  <path d="M428.47,560q-12.25,29.92-24.53,59.85c-2.9,7.06-5.69,14.17-9,21a7.34,7.34,0,0,1-5.3,3.54c-19.62.26-39.24.14-58.87.22-2.93,0-4.43-.71-4.79-4q-9.75-88.85-19.69-177.67a54.23,54.23,0,0,1,0-5.46h67q1.95,43.23,3.9,86.58l1,.25c.58-1.12,1.25-2.2,1.72-3.36,10.73-26.56,21.41-53.16,32.27-79.67.72-1.75,2.88-4.12,4.4-4.14,18.33-.29,36.67-.19,55.67-.19,3.74,29.8,7.42,59.07,11.09,88.34l1.36.11c1.73-5.42,3.4-10.85,5.21-16.23,7.45-22.29,15-44.54,22.33-66.88,1.29-3.94,3-5.46,7.39-5.39,19.41.28,38.83.14,58.25.18,1.17,0,2.34.25,4.4.48-4.4,11.42-8.56,22.36-12.84,33.25q-29.39,74.84-59,149.58c-.73,1.83-3.62,3.94-5.54,4-19.41.33-38.83.15-58.24.4-4.32,0-5.51-1.61-6-5.59-3.53-26.33-7.3-52.63-11-78.94Z" />
  <path d="M615.72,644.24H553.85c1.82-10.62,3.56-20.71,5.28-30.79Q572.08,537.86,585,462.27c.45-2.65.29-5.38,4.31-5.36,19.17.09,38.34,0,58.42,0-3.48,21.24-6.87,41.86-10.45,63.69H646c12,0,24-.13,35.93.11,4.08.09,5.67-1,6.32-5.3,3-19.32,6.38-38.58,9.67-58.09h62.42c-1.53,9-3,17.49-4.4,25.95-8.62,51.64-17.32,103.28-25.74,155-.78,4.81-2.23,6.54-7.25,6.46-17.14-.27-34.28-.05-51.42-.05a46.42,46.42,0,0,1-4.76-.53c3.69-22.23,7.32-44.11,11.15-67.16h-8.73c-11.36,0-22.74.51-34.06-.09-6.54-.34-8.3,2.24-9.16,8.09-2.75,18.55-6,37-9.11,55.52A31,31,0,0,1,615.72,644.24Z" />
  <path d="M854.66,504.84c9.7-13,19.37-25.11,27.91-37.92,5.13-7.69,10.85-10.54,20.21-10.23,23.94.78,47.92.28,71.88.3h7.92c-7.23,7.71-13.39,14.43-19.7,21-27.58,28.72-55.29,57.31-82.69,86.2-2.79,2.95-4.26,7.47-5.51,11.51-3.88,12.61-7.19,25.39-11.13,38-1,3.12-2.9,6.59-5.44,8.48-27.33,20.3-54.87,40.33-82.38,60.4-1.27.93-2.75,1.57-5.79,3.26,2.41-8.3,4.22-15.1,6.36-21.8,10.26-32.21,20.67-64.38,30.81-96.62a11.68,11.68,0,0,0-.53-7.53c-14.26-32.46-28.71-64.84-43.1-97.25-.65-1.47-1.09-3-1.8-5a26.93,26.93,0,0,1,3.75-.56c22.31-.07,44.62,0,66.93-.25,4.28,0,6.19,1.36,7.47,5.36,4,12.56,8.43,25,12.72,37.49C853.05,501.1,853.72,502.53,854.66,504.84Z" />
  <path d="M873.8,418.27c-.11,13.3-10.18,23.48-23,23.25-12.34-.23-22.61-11.2-22.53-24.08.07-12.67,10.79-23.35,23.3-23.2C864.23,394.39,873.9,404.85,873.8,418.27Z" />
  <path d="M798.76,441.32c-12.91.12-22.7-9.87-22.82-23.28s9.76-23.89,22.3-23.86c12.71,0,23.19,10.89,23.13,24C821.32,430.69,811,441.2,798.76,441.32Z" />
  <path d="M1122.25,516c-14.59-3.5-28-7.74-41.84-9.78-19-2.8-36.54,1.13-48.37,18a59,59,0,0,0-10.2,45.31c2.9,16.29,16.18,26.84,34.19,26,13.08-.65,26-3.85,39-6.09,5-.87,9.92-2.22,16.07-3.63-1.79,11-3.39,20.9-5,30.77-.47,2.85-1.59,5.71-1.46,8.52.41,8.71-4.69,11.94-12.05,14.5-26.21,9.13-52.76,11.78-79.78,4.73-35.75-9.34-56.77-34.29-59.05-71.2-2.1-34,7.23-64.61,31.68-89.33,17-17.24,38.5-25.85,62.22-29.18,27.25-3.82,53.49-.89,78.37,11.65,4.09,2.06,5,4.47,4.13,8.76C1127.34,488.63,1124.85,502.38,1122.25,516Z" />
  <path d="M1182.91,593.54h75.22c-2.69,14.06-5.15,27.33-7.79,40.56-2.12,10.59-2.22,10.51-13.22,10.51q-58.87,0-117.76.11H1112c2.53-14.29,4.94-27.63,7.25-41,7.92-45.94,15.73-91.89,23.74-137.8,1.85-10.61-.09-8.89,10.52-9,17.52-.12,35,0,53.26,0C1198.85,502.36,1191,547.35,1182.91,593.54Z" />
  <path d="M1448.49,456.91c-2.46,14.27-4.68,27.44-7,40.61-4.78,27.21-8.91,54.56-14.59,81.59-8.77,41.68-35.8,65.17-78.32,68.31a146.17,146.17,0,0,1-37-1.84c-36.73-6.8-55.27-32.24-51.29-69.48,1.49-13.93,4.27-27.72,6.64-41.53,4.16-24.19,8.49-48.34,12.64-72.52.54-3.18,1.2-5.28,5.21-5.24,18,.17,35.94.06,53.91.08a28.29,28.29,0,0,1,3.59.5c-2.74,16.09-5.43,31.86-8.1,47.63q-5.52,32.64-11,65.27c-.1.61-.2,1.22-.27,1.83-1.35,12,2,19.29,10.1,22.15,10.53,3.71,23.41.19,28-9.51,4-8.4,6.45-17.8,8.15-27,5.93-32.24,11.19-64.6,16.93-96.88.27-1.51,2.64-3.77,4.06-3.78C1409.19,456.82,1428.16,456.91,1448.49,456.91Z" />
  <path d="M1587.05,548.08c34,20.11,19.4,69.89-5.77,84a95.13,95.13,0,0,1-46.17,12.27c-34.69.37-69.38.11-104.07.08a23,23,0,0,1-3.17-.53c10.74-62.24,21.44-124.28,32.26-187h7.72c28.08,0,56.17,0,84.25-.08,12.33-.05,24.38,1.67,35.67,6.61,26.3,11.5,34.53,46.67,16,69.07C1599.06,538.24,1592.82,542.78,1587.05,548.08Z" />
  <path d="M1489.24,604.39c2.14-12.82,4.09-25.16,6.41-37.43.24-1.29,2.69-3,4.15-3.06,10.31-.21,20.64-.39,30.93.14,11.07.57,17.45,6.32,18.51,15.54,1.19,10.42-4.28,19.35-14.1,22.67a30.74,30.74,0,0,1-9,2C1514,604.53,1501.88,604.39,1489.24,604.39Z" />
  <path d="M1501.08,533.69c2.06-11.48,3.89-22.44,6.14-33.32.32-1.58,2.61-3.9,4-3.94,9.47-.25,19-.5,28.43.29s14.44,5.44,15.7,12.42a19.87,19.87,0,0,1-9.84,21c-3,1.63-6.51,3.28-9.84,3.4C1524.44,534,1513.15,533.69,1501.08,533.69Z" />
  <path class="cls-1" d="M1497.48,598.22c1.79-10,3.3-18.43,4.82-26.94,10.7,0,21.14-.6,31.44.37,3,.28,7.73,5,7.84,7.8.18,4.58-2.43,9.46-4.63,13.83-.82,1.63-3.75,2.91-5.81,3.07C1520.17,597.18,1509.18,597.61,1497.48,598.22Z" />
  <path class="cls-1" d="M1509.52,527.27c1.33-7.5,2.29-14,3.78-20.4a5.5,5.5,0,0,1,4-3.3c7-.2,14,0,21,.36,4.49.25,8.94,1.66,9.86,6.79,1,5.59-1.22,10.76-6.37,12.88s-11,2.9-16.66,3.55C1520.26,527.71,1515.3,527.27,1509.52,527.27Z" />
</svg>
